<?xml version="1.0" encoding="UTF-8" standalone="no"?>
<!-- Created with Inkscape (http://www.inkscape.org/) -->

<svg
   width="474"
   height="474"
   viewBox="0 0 125.4125 125.41251"
   version="1.1"
   id="svg5"
   inkscape:version="1.1.1 (3bf5ae0d25, 2021-09-20)"
   sodipodi:docname="logo.svg"
   inkscape:export-filename="/mnt/Arquivos/André/Projects/tv8/favicon.png"
   inkscape:export-xdpi="6.4810128"
   inkscape:export-ydpi="6.4810128"
   xmlns:inkscape="http://www.inkscape.org/namespaces/inkscape"
   xmlns:sodipodi="http://sodipodi.sourceforge.net/DTD/sodipodi-0.dtd"
   xmlns="http://www.w3.org/2000/svg"
   xmlns:svg="http://www.w3.org/2000/svg">
  <sodipodi:namedview
     id="namedview7"
     pagecolor="#ffffff"
     bordercolor="#999999"
     borderopacity="1"
     inkscape:pageshadow="0"
     inkscape:pageopacity="0"
     inkscape:pagecheckerboard="0"
     inkscape:document-units="mm"
     showgrid="false"
     showguides="false"
     units="px"
     inkscape:zoom="0.67081228"
     inkscape:cx="620.88905"
     inkscape:cy="2.98146"
     inkscape:window-width="1920"
     inkscape:window-height="1011"
     inkscape:window-x="0"
     inkscape:window-y="1112"
     inkscape:window-maximized="1"
     inkscape:current-layer="layer1" />
  <defs
     id="defs2" />
  <g
     inkscape:label="Camada 1"
     inkscape:groupmode="layer"
     id="layer1"
     transform="translate(0,-171.58748)">
    <g
       aria-label="v"
       transform="scale(1.2494409,0.80035799)"
       id="text3092"
       style="font-size:135.99px;fill:#333333;stroke:#333333;stroke-width:22.119">
      <g
         id="path1392">
        <path
           style="color:#000000;-inkscape-font-specification:'Open Sans';stroke:none;-inkscape-stroke:none"
           d="m 43.746568,333.10825 -27.62297,-72.77591 h 11.819444 l 15.670723,43.16089 q 5.31211,15.13952 6.241729,19.65481 h 0.531211 q 0.730415,-3.51927 4.581694,-14.5419 3.917681,-11.08903 17.463561,-48.2738 h 11.819444 l -27.62297,72.77591 z"
           id="path1439" />
        <path
           style="color:#000000;-inkscape-font-specification:'Open Sans';stroke:none;-inkscape-stroke:none"
           d="M 0.09570312,249.27344 36.115234,344.16797 h 7.63086 20.513672 L 100.2793,249.27344 H 64.689453 l -2.648437,7.27343 c -6.108174,16.76754 -8.650086,23.86981 -11.832032,32.70704 L 35.693359,249.27344 Z"
           id="path1441" />
      </g>
    </g>
    <g
       aria-label="T"
       transform="scale(1.1312885,0.8839478)"
       id="text20520"
       style="font-size:93.6657px;fill:#339933;stroke:#339933;stroke-width:7.34902">
      <g
         id="path1389">
        <path
           style="color:#000000;-inkscape-font-specification:'Open Sans';stroke:none;-inkscape-stroke:none"
           d="m 59.316518,287.0098 h -7.774986 v -59.95886 h -21.1754 v -6.90602 h 50.125786 v 6.90602 h -21.1754 z"
           id="path1433" />
        <path
           style="color:#000000;-inkscape-font-specification:'Open Sans';stroke:none;-inkscape-stroke:none"
           d="m 26.691406,216.4707 v 14.25391 h 21.175781 v 59.95898 h 15.123047 v -3.67382 -56.28516 H 84.166016 V 216.4707 Z m 28.525391,7.34961 h 0.425781 v 59.51563 h -0.425781 z"
           id="path1435" />
      </g>
    </g>
    <path
       style="fill:#333333;fill-opacity:1;stroke:none;stroke-width:2.64908px;stroke-linecap:butt;stroke-linejoin:miter;stroke-opacity:1"
       d="m 72.36928,214.55244 -30.115346,51.80375 25.86363,6.93021 31.918256,-48.83451 z"
       id="path27397"
       sodipodi:nodetypes="ccccc" />
    <path
       style="fill:#333333;fill-opacity:1;stroke:none;stroke-width:2.64908px;stroke-linecap:butt;stroke-linejoin:miter;stroke-opacity:1"
       d="m 53.03436,214.61131 30.115345,51.80376 -25.863629,6.9302 -31.918258,-48.83451 z"
       id="path27806"
       sodipodi:nodetypes="ccccc" />
    <g
       aria-label="8"
       transform="scale(1.0831362,0.92324493)"
       id="text30330"
       style="font-size:48.3527px;line-height:1.25;fill:#66cc33;stroke-width:1.20882">
      <path
         d="m 57.89318,274.6376 q -3.399799,0 -5.359406,1.81795 -1.935997,1.81795 -1.935997,5.00526 0,3.18731 1.935997,5.00526 1.959607,1.81795 5.359406,1.81795 3.399799,0 5.359405,-1.81795 1.959607,-1.84156 1.959607,-5.00526 0,-3.18731 -1.959607,-5.00526 -1.935996,-1.81795 -5.359405,-1.81795 z m -4.769163,-2.03043 q -3.069263,-0.75551 -4.792772,-2.85678 -1.6999,-2.10126 -1.6999,-5.12331 0,-4.22614 2.998434,-6.68155 3.022044,-2.45541 8.263401,-2.45541 5.264967,0 8.263401,2.45541 2.998434,2.45541 2.998434,6.68155 0,3.02205 -1.72351,5.12331 -1.699899,2.10127 -4.745553,2.85678 3.447019,0.80273 5.359406,3.14009 1.935997,2.33736 1.935997,5.71355 0,5.12331 -3.140093,7.86204 -3.116482,2.73872 -8.948082,2.73872 -5.8316,0 -8.971692,-2.73872 -3.116483,-2.73873 -3.116483,-7.86204 0,-3.37619 1.935997,-5.71355 1.935996,-2.33736 5.383015,-3.14009 z m -1.747119,-7.5315 q 0,2.73873 1.6999,4.27336 1.723509,1.53463 4.816382,1.53463 3.069263,0 4.792772,-1.53463 1.747119,-1.53463 1.747119,-4.27336 0,-2.73873 -1.747119,-4.27336 -1.723509,-1.53463 -4.792772,-1.53463 -3.092873,0 -4.816382,1.53463 -1.6999,1.53463 -1.6999,4.27336 z"
         id="path1386" />
    </g>
  </g>
</svg>
